<svg version="1.2" baseProfile="tiny" viewBox="0 0 151.041 151.035" xmlns:xlink="http://www.w3.org/1999/xlink" xmlns="http://www.w3.org/2000/svg">
<path style="fill:#ffffff;stroke:#787878;stroke-width:4;" d="M47.5477,150.0246C45.8606,150.0246,43.7762,149.1607,42.5815,147.966L3.0586,108.4265C1.8623,107.2303,0.9999,105.1445,0.9999,103.462L1.0105,47.5564C1.0105,45.8693,1.8744,43.7835,3.0707,42.5889L42.6102,3.0585C43.8064,1.8623,45.8908,0.9999,47.5749,0.9999L103.4933,1.0104C105.1834,1.0104,107.2708,1.8804,108.4595,3.0705L147.9824,42.6206C149.156,43.7941,150.0411,45.9207,150.0411,47.576L150.029,103.4907C150.029,105.1747,149.1666,107.262,147.9718,108.4567L108.4187,147.9886C107.23,149.1743,105.1457,150.0367,103.454,150.0367L47.5477,150.0246Z"/>
</svg>